<?xml version='1.0' encoding='UTF-8'?>
<mxfile version="1.0" encoding="UTF-8">
  <diagram name="ArchiMate Model" id="archimate_diagram">
    <mxGraphModel dx="1050" dy="522" grid="1" gridSize="10">
      <root>
        <!-- Mandatory root cells -->
        <mxCell id="0" />
        <mxCell id="1" parent="0" />

        <!-- Layer label (now properly parented to layer "1") -->
        <mxCell id="label_Motivation_Layer" value="Motivation Layer" style="text;html=1;align=center;verticalAlign=middle;resizable=0;points=[];" vertex="1" parent="1">
          <mxGeometry x="50" y="60" width="200" height="30" as="geometry"/>
        </mxCell>

        <!-- Elements (added parent="1" to make them visible) -->
        <mxCell id="elem_1" value="Utilisateurs" style="shape=ellipse;whiteSpace=wrap;html=1;" vertex="1" parent="1">
          <mxGeometry x="100" y="100" width="120" height="60" as="geometry"/>
        </mxCell>
        <mxCell id="elem_2" value="Collaboration efficace" style="shape=rhombus;whiteSpace=wrap;html=1;" vertex="1" parent="1">
          <mxGeometry x="250" y="100" width="120" height="60" as="geometry"/>
        </mxCell>
        <mxCell id="elem_3" value="Gestion de projets optimisÃ©e" style="shape=ellipse;whiteSpace=wrap;html=1;" vertex="1" parent="1">
          <mxGeometry x="400" y="100" width="120" height="60" as="geometry"/>
        </mxCell>
      </root>
    </mxGraphModel>
  </diagram>
</mxfile>